<svg xmlns="http://www.w3.org/2000/svg" viewBox="0 0 800 392" role="img" aria-label="Property prices / ABC Company"><rect width="800" height="392" fill="white"/><g font-family="Arial,Helvetica,sans-serif"><rect x="0" y="0" width="800" height="8" fill="#287953"/><g transform="translate(0,-48)"><rect x="24" y="72" width="236" height="310" fill="#eef6f0"/><text x="42" y="144" font-size="40" fill="#287953" font-weight="700" text-anchor="start">MYR 1.3m</text><text x="42" y="180" font-size="21" fill="#17202b" font-weight="700" text-anchor="start">median asking price</text><text x="42" y="237" font-size="19" fill="#17202b" font-weight="400" text-anchor="start">4,801 listings.</text><text x="42" y="264" font-size="19" fill="#17202b" font-weight="400" text-anchor="start">A market with</text><text x="42" y="291" font-size="19" fill="#17202b" font-weight="400" text-anchor="start">a long price tail.</text><text x="293" y="98" font-size="21" fill="#17202b" font-weight="700" text-anchor="start">Listings by price band</text><line x1="335" y1="338" x2="770" y2="338" stroke="#cad1db"/><text x="325" y="344" font-size="16" fill="#465366" font-weight="400" text-anchor="end">0</text><line x1="335" y1="235.5" x2="770" y2="235.5" stroke="#cad1db"/><text x="325" y="241.5" font-size="16" fill="#465366" font-weight="400" text-anchor="end">1,000</text><line x1="335" y1="133" x2="770" y2="133" stroke="#cad1db"/><text x="325" y="139" font-size="16" fill="#465366" font-weight="400" text-anchor="end">2,000</text><rect x="351" y="152.26999999999998" width="42" height="185.73000000000002" fill="#abd4be"/><text x="372" y="143.26999999999998" font-size="16" fill="#17202b" font-weight="700" text-anchor="middle">1,812</text><text x="372" y="365" font-size="16" fill="#465366" font-weight="400" text-anchor="middle">0-1</text><rect x="420" y="190.29749999999999" width="42" height="147.70250000000001" fill="#287953"/><text x="441" y="181.29749999999999" font-size="16" fill="#17202b" font-weight="700" text-anchor="middle">1,441</text><text x="441" y="365" font-size="16" fill="#465366" font-weight="400" text-anchor="middle">1-2</text><rect x="489" y="270.8625" width="42" height="67.1375" fill="#abd4be"/><text x="510" y="261.8625" font-size="16" fill="#17202b" font-weight="700" text-anchor="middle">655</text><text x="510" y="365" font-size="16" fill="#465366" font-weight="400" text-anchor="middle">2-3</text><rect x="558" y="304.79" width="42" height="33.21" fill="#abd4be"/><text x="579" y="295.79" font-size="16" fill="#17202b" font-weight="700" text-anchor="middle">324</text><text x="579" y="365" font-size="16" fill="#465366" font-weight="400" text-anchor="middle">3-4</text><rect x="627" y="320.37" width="42" height="17.63" fill="#abd4be"/><text x="648" y="311.37" font-size="16" fill="#17202b" font-weight="700" text-anchor="middle">172</text><text x="648" y="365" font-size="16" fill="#465366" font-weight="400" text-anchor="middle">4-5</text><rect x="696" y="297.3075" width="42" height="40.6925" fill="#abd4be"/><text x="717" y="288.3075" font-size="16" fill="#17202b" font-weight="700" text-anchor="middle">397</text><text x="717" y="365" font-size="16" fill="#465366" font-weight="400" text-anchor="middle">5+</text><text x="550" y="388" font-size="16" fill="#465366" font-weight="400" text-anchor="middle">Asking price / MYR millions</text><line x1="24" y1="395" x2="776" y2="395" stroke="#cad1db"/><text x="28" y="422" font-size="17" fill="#465366" font-weight="400" text-anchor="start">Listing prices, not completed transactions.</text></g></g></svg>
